<?xml version="1.0" encoding="UTF-8"?>
<svg xmlns="http://www.w3.org/2000/svg" xmlns:xlink="http://www.w3.org/1999/xlink" width="249pt" height="174pt" viewBox="0 0 249 174" version="1.1">
<g id="surface1">
<path style=" stroke:none;fill-rule:evenodd;fill:rgb(100%,100%,100%);fill-opacity:1;" d="M 10.351562 86.882812 C -12.230469 73.988281 4.964844 32.414062 34.691406 33.65625 C 30.859375 16.292969 67.449219 -10.867188 97.324219 15.269531 C 101.089844 -4.367188 158.71875 -8.324219 166.703125 23.011719 C 175.378906 0.75 241.597656 12.734375 225.480469 53.015625 C 251.5 47.210938 263.277344 115.660156 220.546875 117.835938 C 231.9375 142.03125 189.878906 164.636719 173.046875 149.640625 C 175.304688 170.566406 113.679688 188.640625 101.773438 155.46875 C 97.105469 176.394531 35.652344 162.4375 44.886719 134.070312 C 26.742188 144.914062 -11.046875 110.835938 10.351562 86.882812 Z M 10.351562 86.882812 "/>
</g>
</svg>
